<svg width="23" height="29" viewBox="0 0 23 29" fill="none" xmlns="http://www.w3.org/2000/svg">
<path d="M12.2188 0C6.07344 0 0 3.97429 0 10.4064C0 14.4969 2.37187 16.821 3.80937 16.821C4.40234 16.821 4.74375 15.2174 4.74375 14.7641C4.74375 14.2238 3.32422 13.0733 3.32422 10.8247C3.32422 6.15318 6.98984 2.84127 11.7336 2.84127C15.8125 2.84127 18.8312 5.08988 18.8312 9.22106C18.8312 12.3064 17.5555 18.0935 13.4227 18.0935C11.9313 18.0935 10.6555 17.0476 10.6555 15.5485C10.6555 13.3522 12.2367 11.2256 12.2367 8.95959C12.2367 5.11312 6.6125 5.81037 6.6125 10.4587C6.6125 11.4348 6.73828 12.5155 7.1875 13.4045C6.36094 16.8559 4.67188 21.9981 4.67188 25.554C4.67188 26.6522 4.83359 27.7329 4.94141 28.8311C5.14505 29.0518 5.04323 29.0286 5.35469 28.9182C8.37344 24.9091 8.26562 24.1247 9.63125 18.8779C10.368 20.2375 12.2727 20.9696 13.782 20.9696C20.143 20.9696 23 14.9559 23 9.53482C23 3.76512 17.8609 0 12.2188 0Z" fill="white"/>
</svg>
