<svg width="36" height="27" viewBox="0 0 36 27" fill="none" xmlns="http://www.w3.org/2000/svg">
<path d="M35.2477 4.14175C34.8337 2.51147 33.6138 1.2275 32.065 0.791774C29.2575 0 18 0 18 0C18 0 6.74254 0 3.93503 0.791774C2.38616 1.22757 1.16629 2.51147 0.752255 4.14175C0 7.09674 0 13.262 0 13.262C0 13.262 0 19.4273 0.752255 22.3823C1.16629 24.0126 2.38616 25.2431 3.93503 25.6788C6.74254 26.4706 18 26.4706 18 26.4706C18 26.4706 29.2575 26.4706 32.065 25.6788C33.6138 25.2431 34.8337 24.0126 35.2477 22.3823C36 19.4273 36 13.262 36 13.262C36 13.262 36 7.09674 35.2477 4.14175ZM14.3182 18.8597V7.66441L23.7272 13.2622L14.3182 18.8597Z" fill="white"/>
</svg>
